<?xml version="1.0" encoding="UTF-8"?>
<svg width="37px" height="30px" viewBox="0 0 37 30" version="1.1" xmlns="http://www.w3.org/2000/svg" xmlns:xlink="http://www.w3.org/1999/xlink">
    <!-- Generator: Sketch 53.2 (72643) - https://sketchapp.com -->
    <title>Group Copy 5</title>
    <desc>Created with Sketch.</desc>
    <g id="确定版" stroke="none" stroke-width="1" fill="none" fill-rule="evenodd" opacity="0.5">
        <g id="Group-Copy-5" fill="#0086CD">
            <g id="Group-39-Copy" transform="translate(0.000000, 12.760417)">
                <path d="M8.325,11.8511398 L8.325,11.8633801 C3.30357665,9.97993366 0,6.9727988 0,4.55729167 C0,2.83275482 1.68388604,1.73635034 4.47459717,1.05247523 L4.47459717,2.50996966 C3.29516737,3.15323072 2.64285714,3.86078165 2.64285714,4.55729167 C2.64285714,5.81956729 4.78529308,7.11810549 8.325,8.00451927 C10.5454653,8.50487565 12.4227908,8.81312964 13.9569763,8.93011093 C13.9569763,11.2053447 13.9569763,12.6716667 13.9569763,13.3290768 C12.9644831,13.1857892 12.0121577,12.9949007 11.1,12.7564112 C10.2785227,12.5416307 9.3535227,12.2398736 8.325,11.8511398 Z M28.675,8.00451927 C32.2147069,7.11810549 34.3571429,5.81956729 34.3571429,4.55729167 C34.3571429,3.67156805 33.3022802,2.76798997 31.45,2.00146944 L31.45,0.81912494 C34.87786,1.47692358 37,2.62130148 37,4.55729167 C37,6.9727988 33.6964234,9.97993366 28.675,11.8633801 L28.675,8.00451927 Z" id="Combined-Shape" fill-rule="nonzero"></path>
                <path d="M11.1,5.46875 L20.35,10.9375 L11.1,16.40625 C12.3333333,14.2779064 12.95,12.4549897 12.95,10.9375 C12.95,9.42001029 12.3333333,7.59709362 11.1,5.46875 Z" id="Path-28"></path>
            </g>
            <path d="M11.0374691,14.2734375 C10.6317807,14.2734375 10.2474444,14.2119141 9.92716406,14.109375 C9.58553174,13.9863281 9.30795548,13.8427734 9.07308326,13.6171875 C8.83821105,13.4121094 8.64604287,13.1660156 8.51793075,12.8583984 C8.38981863,12.5712891 8.32576257,12.2431641 8.32576257,11.8945313 L5.55,11.8945313 C5.55,12.6328125 5.69946414,13.2890625 5.99839242,13.8427734 C6.29732069,14.3964844 6.70300907,14.8681641 7.19410552,15.2578125 C7.706554,15.6269531 8.28305853,15.9140625 8.94497115,16.0986328 C9.58553174,16.3037109 10.2687964,16.40625 10.994765,16.40625 C11.7847898,16.40625 12.5321105,16.3037109 13.1940231,16.0986328 C13.8772877,15.8935547 14.4751443,15.5859375 14.9662407,15.1962891 C15.4573372,14.8066406 15.8630256,14.3144531 16.1406018,13.7197266 C16.4181781,13.125 16.5676422,12.46875 16.5676422,11.7304688 C16.5676422,11.3408203 16.5249382,10.9511719 16.4181781,10.5820312 C16.311418,10.2128906 16.1619538,9.86425781 15.9270816,9.53613281 C15.7135614,9.20800781 15.4146331,8.92089844 15.0730008,8.65429688 C14.7100165,8.38769531 14.2829761,8.18261719 13.7705276,8.01855469 C14.197568,7.83398438 14.5605523,7.60839844 14.8808326,7.34179687 C15.2011129,7.07519531 15.4573372,6.78808594 15.6708574,6.48046875 C15.8843776,6.17285156 16.0338417,5.86523437 16.1406018,5.53710937 C16.2473619,5.20898437 16.290066,4.88085937 16.290066,4.55273437 C16.290066,3.81445312 16.1619538,3.15820312 15.9057296,2.58398437 C15.6495054,2.00976562 15.286521,1.53808594 14.8167766,1.16894531 C14.3897362,0.779296875 13.8132317,0.4921875 13.1726711,0.287109375 C12.5107585,0.102539062 11.7847898,0 10.994765,0 C10.2260923,0 9.52147568,0.102539062 8.85956307,0.328125 C8.21900247,0.553710937 7.64249794,0.861328125 7.1727535,1.25097656 C6.72436109,1.640625 6.36137675,2.09179687 6.08380049,2.625 C5.82757626,3.15820312 5.69946414,3.73242187 5.69946414,4.36816406 L8.47522671,4.36816406 C8.47522671,4.01953125 8.53928277,3.71191406 8.66739489,3.4453125 C8.79550701,3.17871094 8.96632317,2.93261719 9.20119538,2.74804687 C9.4360676,2.56347656 9.69229184,2.39941406 10.0125721,2.296875 C10.3328524,2.19433594 10.6531327,2.1328125 11.0374691,2.1328125 C11.8915499,2.1328125 12.5321105,2.33789062 12.9377988,2.76855469 C13.3434872,3.17871094 13.5570074,3.7734375 13.5570074,4.53222656 C13.5570074,4.90136719 13.4929514,5.22949219 13.3861913,5.53710937 C13.2794312,5.84472656 13.087263,6.09082031 12.8523908,6.29589844 C12.6175185,6.50097656 12.3185903,6.66503906 11.976958,6.78808594 C11.6353256,6.91113281 11.2082852,6.97265625 10.7385408,6.97265625 L9.09443528,6.97265625 L9.09443528,9.08496094 L10.7385408,9.08496094 C11.2082852,9.08496094 11.6353256,9.12597656 12.019662,9.22851562 C12.4039984,9.33105469 12.7242786,9.49511719 12.9805029,9.70019531 C13.2367271,9.92578125 13.4502473,10.1923828 13.5997115,10.5205078 C13.7491756,10.8486328 13.8132317,11.2382812 13.8132317,11.6894531 C13.8132317,12.5302734 13.5570074,13.1660156 13.065911,13.5966797 C12.5748145,14.0683594 11.8915499,14.2734375 11.0374691,14.2734375 L11.0374691,14.2734375 Z M29.293446,2.1328125 C28.6101814,1.45605469 27.7988046,0.922851562 26.8593157,0.553710937 C25.9411789,0.184570312 24.8949299,0 23.7419209,0 L18.7028442,0 L18.7028442,16.40625 L23.6138087,16.40625 C24.7881698,16.40625 25.8771228,16.2216797 26.8379637,15.8525391 C27.7988046,15.4833984 28.6315334,14.9707031 29.314798,14.2939453 C29.9980627,13.6171875 30.5318631,12.796875 30.8948475,11.8535156 C31.2578318,10.8896484 31.45,9.82324219 31.45,8.63378906 L31.45,7.81347656 C31.45,6.62402344 31.2578318,5.55761719 30.8948475,4.59375 C30.5105111,3.62988281 29.9767106,2.80957031 29.293446,2.1328125 L29.293446,2.1328125 Z M28.4607172,8.61328125 C28.4607172,9.47460937 28.3539571,10.2333984 28.161789,10.9306641 C27.9482688,11.6074219 27.6493405,12.2021484 27.2436521,12.6738281 C26.8379637,13.1455078 26.3255153,13.5146484 25.7276587,13.7607422 C25.1084501,14.0068359 24.4038335,14.1298828 23.6138087,14.1298828 L21.6707749,14.1298828 L21.6707749,2.296875 L23.7419209,2.296875 C25.2792663,2.296875 26.4536274,2.76855469 27.2436521,3.71191406 C28.0550289,4.65527344 28.4607172,6.00878906 28.4607172,7.79296875 L28.4607172,8.61328125 L28.4607172,8.61328125 Z" id="Shape-Copy"></path>
        </g>
    </g>
</svg>